<svg width="71" height="71" viewBox="0 0 71 71" fill="none" xmlns="http://www.w3.org/2000/svg">
<path d="M44.3751 5.91667H26.6251C24.9912 5.91667 23.6667 7.24116 23.6667 8.87501V14.7917C23.6667 16.4255 24.9912 17.75 26.6251 17.75H44.3751C46.0089 17.75 47.3334 16.4255 47.3334 14.7917V8.87501C47.3334 7.24116 46.0089 5.91667 44.3751 5.91667Z" stroke="#FFC60D" stroke-width="3" stroke-linecap="round" stroke-linejoin="round"/>
<path d="M23.6666 11.8333H17.7499C16.1807 11.8333 14.6758 12.4567 13.5662 13.5663C12.4566 14.6759 11.8333 16.1808 11.8333 17.75V59.1667C11.8333 60.7359 12.4566 62.2408 13.5662 63.3504C14.6758 64.46 16.1807 65.0833 17.7499 65.0833H53.2499C54.8191 65.0833 56.324 64.46 57.4336 63.3504C58.5432 62.2408 59.1666 60.7359 59.1666 59.1667V57.6875" stroke="#FFC60D" stroke-width="3" stroke-linecap="round" stroke-linejoin="round"/>
<path d="M47.3333 11.8333H53.2499C54.2875 11.8344 55.3065 12.1083 56.2048 12.6275C57.1031 13.1468 57.8491 13.8931 58.3678 14.7917" stroke="#FFC60D" stroke-width="3" stroke-linecap="round" stroke-linejoin="round"/>
<path d="M54.4924 28.4296C55.0693 27.8527 55.7542 27.395 56.508 27.0828C57.2618 26.7706 58.0697 26.6099 58.8855 26.6099C59.7014 26.6099 60.5093 26.7706 61.2631 27.0828C62.0169 27.395 62.7018 27.8527 63.2787 28.4296C63.8556 29.0065 64.3132 29.6914 64.6254 30.4452C64.9377 31.1989 65.0984 32.0068 65.0984 32.8227C65.0984 33.6386 64.9377 34.4465 64.6254 35.2003C64.3132 35.954 63.8556 36.6389 63.2787 37.2158L50.1437 50.2917L38.4583 53.25L41.387 41.5646L54.4924 28.4296Z" stroke="#FFC60D" stroke-width="3" stroke-linecap="round" stroke-linejoin="round"/>
<path d="M23.6667 53.25H26.6251" stroke="#FFC60D" stroke-width="3" stroke-linecap="round" stroke-linejoin="round"/>
</svg>
