<svg width="71" height="71" viewBox="0 0 71 71" fill="none" xmlns="http://www.w3.org/2000/svg">
<path d="M35.4999 59.1667C41.7767 59.1667 47.7964 56.6732 52.2348 52.2349C56.6732 47.7965 59.1666 41.7768 59.1666 35.5C59.1666 29.2232 56.6732 23.2035 52.2348 18.7652C47.7964 14.3268 41.7767 11.8333 35.4999 11.8333C29.2231 11.8333 23.2034 14.3268 18.7651 18.7652C14.3267 23.2035 11.8333 29.2232 11.8333 35.5C11.8333 41.7768 14.3267 47.7965 18.7651 52.2349C23.2034 56.6732 29.2231 59.1667 35.4999 59.1667Z" stroke="#4D4D4D" stroke-width="3" stroke-linecap="round" stroke-linejoin="round"/>
<path d="M35.4999 41.4167C37.0691 41.4167 38.574 40.7933 39.6836 39.6837C40.7932 38.5741 41.4166 37.0692 41.4166 35.5C41.4166 33.9308 40.7932 32.4259 39.6836 31.3163C38.574 30.2067 37.0691 29.5833 35.4999 29.5833C33.9307 29.5833 32.4258 30.2067 31.3162 31.3163C30.2066 32.4259 29.5833 33.9308 29.5833 35.5C29.5833 37.0692 30.2066 38.5741 31.3162 39.6837C32.4258 40.7933 33.9307 41.4167 35.4999 41.4167Z" stroke="#4D4D4D" stroke-width="3" stroke-linecap="round" stroke-linejoin="round"/>
<path d="M35.5 5.91667V11.8333" stroke="#4D4D4D" stroke-width="3" stroke-linecap="round" stroke-linejoin="round"/>
<path d="M35.5 65.0833V59.1667" stroke="#4D4D4D" stroke-width="3" stroke-linecap="round" stroke-linejoin="round"/>
<path d="M50.2916 61.1192L47.3333 56.0013" stroke="#4D4D4D" stroke-width="3" stroke-linecap="round" stroke-linejoin="round"/>
<path d="M32.5416 30.3821L20.7083 9.88083" stroke="#4D4D4D" stroke-width="3" stroke-linecap="round" stroke-linejoin="round"/>
<path d="M61.1191 50.2917L56.0012 47.3333" stroke="#4D4D4D" stroke-width="3" stroke-linecap="round" stroke-linejoin="round"/>
<path d="M9.88086 20.7083L14.9988 23.6667" stroke="#4D4D4D" stroke-width="3" stroke-linecap="round" stroke-linejoin="round"/>
<path d="M41.4167 35.5H65.0834" stroke="#4D4D4D" stroke-width="3" stroke-linecap="round" stroke-linejoin="round"/>
<path d="M5.91675 35.5H11.8334" stroke="#4D4D4D" stroke-width="3" stroke-linecap="round" stroke-linejoin="round"/>
<path d="M61.1191 20.7083L56.0012 23.6667" stroke="#4D4D4D" stroke-width="3" stroke-linecap="round" stroke-linejoin="round"/>
<path d="M9.88086 50.2917L14.9988 47.3333" stroke="#4D4D4D" stroke-width="3" stroke-linecap="round" stroke-linejoin="round"/>
<path d="M50.2916 9.88083L47.3333 14.9987" stroke="#4D4D4D" stroke-width="3" stroke-linecap="round" stroke-linejoin="round"/>
<path d="M32.5416 40.6179L20.7083 61.1192" stroke="#4D4D4D" stroke-width="3" stroke-linecap="round" stroke-linejoin="round"/>
</svg>
