<svg width="63" height="63" viewBox="0 0 63 63" fill="none" xmlns="http://www.w3.org/2000/svg">
<path d="M53.5963 19.3122C53.4513 20.2648 53.7708 21.2292 54.4513 21.9096L59.0899 26.5483C60.4803 27.9387 61.1785 29.764 61.1785 31.5893C61.1785 33.4145 60.4833 35.2369 59.0899 36.6303L54.324 41.3961C54.0037 41.7161 53.6129 41.9566 53.1829 42.0984C52.753 42.2402 52.2957 42.2793 51.8479 42.2126C50.4575 42.0055 49.4753 40.7926 48.9843 39.4762C48.5534 38.3129 47.8369 37.2767 46.9008 36.4627C45.9646 35.6488 44.8389 35.0833 43.627 34.8182C42.4152 34.5532 41.1561 34.5971 39.9657 34.9459C38.7752 35.2947 37.6916 35.9372 36.8144 36.8144C35.9372 37.6916 35.2947 38.7752 34.9459 39.9657C34.5971 41.1561 34.5532 42.4152 34.8182 43.627C35.0833 44.8389 35.6488 45.9646 36.4627 46.9008C37.2767 47.8369 38.3129 48.5534 39.4762 48.9843C40.7956 49.4753 42.0055 50.4545 42.2126 51.8479C42.2796 52.2957 42.2406 52.753 42.0988 53.1831C41.957 53.6131 41.7163 54.0039 41.3961 54.324L36.6332 59.087C35.9717 59.7507 35.1856 60.2772 34.32 60.6361C33.4544 60.995 32.5263 61.1794 31.5893 61.1785C30.6528 61.1797 29.7254 60.9958 28.8603 60.6374C27.9952 60.2789 27.2094 59.753 26.5483 59.0899L21.9096 54.4513C21.5743 54.1154 21.1649 53.8628 20.7144 53.7138C20.2638 53.5648 19.7845 53.5236 19.3151 53.5933C17.8567 53.8123 16.8301 55.0843 16.2976 56.457C15.8513 57.6026 15.1264 58.6189 14.1885 59.4139C13.2506 60.2089 12.1292 60.7576 10.926 61.0102C9.72269 61.2628 8.47541 61.2115 7.29696 60.8608C6.11851 60.5102 5.04608 59.8712 4.17668 59.0018C3.30728 58.1324 2.66835 57.06 2.31768 55.8816C1.96701 54.7031 1.91567 53.4558 2.1683 52.2525C2.42093 51.0493 2.96956 49.9279 3.76457 48.99C4.55957 48.0521 5.57587 47.3272 6.72151 46.8809C8.09417 46.3484 9.36626 45.3218 9.58221 43.8634C9.65237 43.3942 9.61158 42.9151 9.4631 42.4645C9.31463 42.014 9.0626 41.6045 8.72726 41.2689L4.08859 36.6303C3.42547 35.9691 2.89958 35.1833 2.54115 34.3182C2.18272 33.4531 1.99881 32.5257 2.00001 31.5893C2.00001 29.764 2.69817 27.9387 4.08859 26.5483L8.60301 22.0338C9.31301 21.3238 10.3218 20.9895 11.3158 21.1375C12.8393 21.3653 13.9103 22.6995 14.4901 24.1254C14.9507 25.2547 15.6834 26.2526 16.6231 27.0302C17.5627 27.8078 18.6801 28.3409 19.8757 28.5821C21.0712 28.8233 22.3079 28.7651 23.4755 28.4126C24.6431 28.0601 25.7055 27.4244 26.5679 26.562C27.4303 25.6995 28.0661 24.6372 28.4185 23.4696C28.771 22.302 28.8292 21.0653 28.588 19.8697C28.3468 18.6742 27.8137 17.5568 27.0361 16.6172C26.2585 15.6775 25.2606 14.9448 24.1313 14.4842C22.7054 13.9043 21.3712 12.8334 21.1434 11.3099C20.9955 10.3159 21.3268 9.31005 22.0398 8.59709L26.5512 4.08563C27.2123 3.4234 27.9977 2.89826 28.8622 2.54035C29.7268 2.18244 30.6535 1.99881 31.5893 2.00001C33.4145 2.00001 35.2398 2.69817 36.6303 4.08859L41.2689 8.72726C41.9493 9.40767 42.9138 9.72717 43.8634 9.58517C45.3218 9.36626 46.3484 8.09417 46.8809 6.72151C47.3272 5.57587 48.0521 4.55957 48.99 3.76457C49.9279 2.96956 51.0493 2.42093 52.2525 2.1683C53.4558 1.91567 54.7031 1.96701 55.8816 2.31768C57.06 2.66835 58.1324 3.30728 59.0018 4.17668C59.8712 5.04608 60.5102 6.11851 60.8608 7.29696C61.2115 8.47541 61.2628 9.72269 61.0102 10.926C60.7576 12.1292 60.2089 13.2506 59.4139 14.1885C58.6189 15.1264 57.6026 15.8513 56.457 16.2976C55.0843 16.8301 53.8123 17.8537 53.5963 19.3122Z" stroke="#4D4D4D" stroke-width="3" stroke-linecap="round" stroke-linejoin="round"/>
</svg>
