<svg width="1025" height="954" viewBox="0 0 1025 954" fill="none" xmlns="http://www.w3.org/2000/svg">
<g filter="url(#filter0_d_36_118)">
<path d="M835.223 875.999C898.661 875.999 950.087 824.572 950.087 761.134C950.087 740.613 944.706 721.349 935.277 704.676L605.493 122.564L720.358 761.134C720.358 824.572 771.785 875.999 835.223 875.999Z" fill="#1E5BFE"/>
<path d="M414.701 373.709C351.263 373.709 299.836 425.136 299.836 488.574C299.836 507.722 304.521 525.775 312.807 541.65L313.464 543.086L258.952 513.883L299.836 428.222L389.392 293.888L506.203 309.463L751.508 531.405L733.986 815.647L519.038 440.471C500.838 401.058 460.963 373.709 414.701 373.709Z" fill="#1E5BFE"/>
<path d="M515.938 70C471.632 70 433.848 97.9245 419.227 137.134L354.348 340.614L587.971 397.072L661.952 239.377L610.767 132.445C594.968 95.717 558.456 70 515.938 70Z" fill="#1E5BFE"/>
<path d="M301.783 875.999C365.221 875.999 416.648 824.572 416.648 761.134C416.648 741.487 411.715 722.991 403.02 706.819L313.464 543.086L241.431 617.067L186.918 761.134C186.918 824.572 238.345 875.999 301.783 875.999Z" fill="#1E5BFE"/>
<path d="M74 842.904C74 861.182 88.8179 876 107.097 876H303.729L249.217 842.904L231.696 613.174L299.836 432.116L410.807 289.995L420.541 134.247L78.4564 826.306C75.6227 831.185 74 836.855 74 842.904Z" fill="#1E5BFE"/>
<path d="M634.696 490.521L529.565 325.038L634.696 247.164L681.42 315.304L710.623 447.69L634.696 490.521Z" fill="#1E5BFE"/>
<path d="M190.812 720.25L313.464 543.086L307.623 535.299L301.783 523.618L264.792 496.362L208.333 609.279L190.812 720.25Z" fill="#1E5BFE"/>
</g>
<path d="M153.391 876.021V758.045H172.773V876.021H153.391ZM166.706 876.021V858.324H228.39V876.021H166.706ZM244.368 876.021V758.045H263.749V876.021H244.368ZM318.174 877.706C308.849 877.706 300.928 876.021 294.411 872.65C287.894 869.279 282.052 864.335 276.883 857.819L290.029 844.673C293.287 849.392 297.164 853.1 301.658 855.796C306.152 858.38 311.882 859.673 318.849 859.673C325.365 859.673 330.534 858.324 334.354 855.628C338.286 852.931 340.253 849.223 340.253 844.504C340.253 840.572 339.241 837.37 337.219 834.898C335.197 832.426 332.5 830.403 329.129 828.83C325.871 827.145 322.219 825.684 318.174 824.449C314.242 823.1 310.253 821.64 306.208 820.067C302.276 818.381 298.624 816.303 295.254 813.831C291.995 811.359 289.355 808.157 287.332 804.224C285.31 800.292 284.299 795.292 284.299 789.225C284.299 782.258 285.984 776.36 289.355 771.528C292.838 766.585 297.501 762.821 303.343 760.236C309.186 757.652 315.703 756.36 322.893 756.36C330.646 756.36 337.556 757.877 343.623 760.911C349.803 763.944 354.803 767.821 358.623 772.54L345.477 785.685C342.107 781.865 338.567 779.056 334.859 777.259C331.264 775.348 327.107 774.393 322.388 774.393C316.545 774.393 311.939 775.573 308.568 777.933C305.31 780.292 303.68 783.607 303.68 787.876C303.68 791.472 304.692 794.393 306.714 796.64C308.736 798.775 311.377 800.629 314.635 802.202C318.006 803.662 321.658 805.067 325.59 806.415C329.635 807.764 333.624 809.28 337.556 810.966C341.601 812.651 345.253 814.842 348.511 817.539C351.882 820.123 354.578 823.494 356.601 827.651C358.623 831.808 359.634 837.033 359.634 843.325C359.634 853.886 355.87 862.257 348.342 868.436C340.927 874.616 330.871 877.706 318.174 877.706ZM401.834 876.021V761.416H421.216V876.021H401.834ZM363.408 775.742V758.045H459.642V775.742H363.408ZM449.776 876.021L498.314 758.045H511.797L559.998 876.021H539.1L501.348 780.461H508.426L470.337 876.021H449.776ZM473.708 853.268V836.415H536.235V853.268H473.708ZM588.936 876.021L637.475 758.045H650.958L699.159 876.021H678.26L640.508 780.461H647.587L609.498 876.021H588.936ZM612.868 853.268V836.415H675.395V853.268H612.868ZM725.981 877.706C722.386 877.706 719.408 876.526 717.049 874.167C714.801 871.695 713.678 868.717 713.678 865.234C713.678 861.639 714.801 858.661 717.049 856.302C719.408 853.942 722.386 852.763 725.981 852.763C729.576 852.763 732.498 853.942 734.745 856.302C737.104 858.661 738.284 861.639 738.284 865.234C738.284 868.717 737.104 871.695 734.745 874.167C732.498 876.526 729.576 877.706 725.981 877.706Z" fill="black"/>
<path d="M153.391 876.021V758.045H172.773V876.021H153.391ZM166.706 876.021V858.324H228.39V876.021H166.706ZM244.368 876.021V758.045H263.749V876.021H244.368ZM318.174 877.706C308.849 877.706 300.928 876.021 294.411 872.65C287.894 869.279 282.052 864.335 276.883 857.819L290.029 844.673C293.287 849.392 297.164 853.1 301.658 855.796C306.152 858.38 311.882 859.673 318.849 859.673C325.365 859.673 330.534 858.324 334.354 855.628C338.286 852.931 340.253 849.223 340.253 844.504C340.253 840.572 339.241 837.37 337.219 834.898C335.197 832.426 332.5 830.403 329.129 828.83C325.871 827.145 322.219 825.684 318.174 824.449C314.242 823.1 310.253 821.64 306.208 820.067C302.276 818.381 298.624 816.303 295.254 813.831C291.995 811.359 289.355 808.157 287.332 804.224C285.31 800.292 284.299 795.292 284.299 789.225C284.299 782.258 285.984 776.36 289.355 771.528C292.838 766.585 297.501 762.821 303.343 760.236C309.186 757.652 315.703 756.36 322.893 756.36C330.646 756.36 337.556 757.877 343.623 760.911C349.803 763.944 354.803 767.821 358.623 772.54L345.477 785.685C342.107 781.865 338.567 779.056 334.859 777.259C331.264 775.348 327.107 774.393 322.388 774.393C316.545 774.393 311.939 775.573 308.568 777.933C305.31 780.292 303.68 783.607 303.68 787.876C303.68 791.472 304.692 794.393 306.714 796.64C308.736 798.775 311.377 800.629 314.635 802.202C318.006 803.662 321.658 805.067 325.59 806.415C329.635 807.764 333.624 809.28 337.556 810.966C341.601 812.651 345.253 814.842 348.511 817.539C351.882 820.123 354.578 823.494 356.601 827.651C358.623 831.808 359.634 837.033 359.634 843.325C359.634 853.886 355.87 862.257 348.342 868.436C340.927 874.616 330.871 877.706 318.174 877.706Z" fill="white"/>
<path d="M363.408 758.025V775.722H401.834V817.594C410.692 798.022 415.847 785.195 416.842 758.021L363.408 758.025Z" fill="white"/>
<defs>
<filter id="filter0_d_36_118" x="0" y="0" width="1024.09" height="954" filterUnits="userSpaceOnUse" color-interpolation-filters="sRGB">
<feFlood flood-opacity="0" result="BackgroundImageFix"/>
<feColorMatrix in="SourceAlpha" type="matrix" values="0 0 0 0 0 0 0 0 0 0 0 0 0 0 0 0 0 0 127 0" result="hardAlpha"/>
<feOffset dy="4"/>
<feGaussianBlur stdDeviation="37"/>
<feComposite in2="hardAlpha" operator="out"/>
<feColorMatrix type="matrix" values="0 0 0 0 0 0 0 0 0 0 0 0 0 0 0 0 0 0 0.45 0"/>
<feBlend mode="normal" in2="BackgroundImageFix" result="effect1_dropShadow_36_118"/>
<feBlend mode="normal" in="SourceGraphic" in2="effect1_dropShadow_36_118" result="shape"/>
</filter>
</defs>
</svg>
