<svg width="41" height="41" viewBox="0 0 41 41" fill="none" xmlns="http://www.w3.org/2000/svg">
<path d="M13.1239 12.5695C11.1825 11.6491 9.83984 9.67127 9.83984 7.37989C9.83984 4.20978 12.4097 1.63989 15.5798 1.63989C18.75 1.63989 21.3198 4.20978 21.3198 7.37989C21.3198 9.67127 19.9772 11.6491 18.0357 12.5695" stroke="#105BFB" stroke-width="2" stroke-miterlimit="10" stroke-linecap="round" stroke-linejoin="round"/>
<path d="M13.12 20.4999C13.12 19.1412 12.0187 18.0399 10.66 18.0399C9.30121 18.0399 8.19995 19.1412 8.19995 20.4999V26.2399C8.19995 33.0328 13.7071 38.5399 20.5 38.5399C27.2928 38.5399 32.8 33.0328 32.8 26.2399V20.4999C32.8 19.1412 31.6987 18.0399 30.34 18.0399C28.9812 18.0399 27.88 19.1412 27.88 20.4999V18.8599C27.88 17.5012 26.7787 16.3999 25.42 16.3999C24.0612 16.3999 22.96 17.5012 22.96 18.8599V17.2199C22.96 15.8612 21.8587 14.7599 20.5 14.7599C19.1412 14.7599 18.04 15.8612 18.04 17.2199V7.37992C18.04 6.02118 16.9387 4.91992 15.58 4.91992C14.2212 4.91992 13.12 6.02118 13.12 7.37992V25.4199V20.4999Z" stroke="white" stroke-width="4" stroke-miterlimit="10" stroke-linecap="round" stroke-linejoin="round"/>
</svg>
