<svg width="185" height="72" viewBox="0 0 185 72" fill="none" xmlns="http://www.w3.org/2000/svg">
<path d="M67.0556 70.9999C72.6438 70.9999 77.1739 66.4698 77.1739 60.8816C77.1739 59.0739 76.6999 57.3769 75.8693 55.9081L46.8188 4.63037L56.9372 60.8816C56.9372 66.4698 61.4673 70.9999 67.0556 70.9999Z" fill="#1E5BFE"/>
<path d="M30.012 26.7536C24.4238 26.7536 19.8937 31.2837 19.8937 36.8719C19.8937 38.5586 20.3064 40.1489 21.0363 41.5473L21.0942 41.6739L16.2922 39.1014L19.8937 31.5555L27.7826 19.7222L38.0724 21.0941L59.6811 40.6449L58.1376 65.6835L39.2031 32.6345C37.5998 29.1627 34.0873 26.7536 30.012 26.7536Z" fill="#1E5BFE"/>
<path d="M38.9301 0C35.0273 0 31.6989 2.45985 30.4109 5.91376L24.6958 23.8382L45.2755 28.8116L51.7924 14.9203L47.2836 5.50072C45.8919 2.2654 42.6755 0 38.9301 0Z" fill="#1E5BFE"/>
<path d="M20.0654 70.9999C25.6536 70.9999 30.1837 66.4698 30.1837 60.8816C30.1837 59.1508 29.7492 57.5215 28.9833 56.0969L21.0944 41.6738L14.749 48.1907L9.94702 60.8816C9.94702 66.4698 14.4772 70.9999 20.0654 70.9999Z" fill="#1E5BFE"/>
<path d="M0 68.0845C0 69.6947 1.3053 71 2.91546 71H20.2367L15.4348 68.0845L13.8913 47.8478L19.8937 31.8986L29.6691 19.3792L30.5266 5.65942L0.392563 66.6224C0.142939 67.0523 0 67.5517 0 68.0845Z" fill="#1E5BFE"/>
<path d="M49.3912 37.0434L40.1304 22.4661L49.3912 15.6062L53.5072 21.6086L56.0797 33.2705L49.3912 37.0434Z" fill="#1E5BFE"/>
<path d="M10.2898 57.2801L21.0941 41.6738L20.5796 40.9878L20.0652 39.9589L16.8067 37.5579L11.8333 47.5047L10.2898 57.2801Z" fill="#1E5BFE"/>
<path d="M89.0487 71V52.1306H92.1487V71H89.0487ZM91.1782 71V68.1696H101.044V71H91.1782ZM103.6 71V52.1306H106.7V71H103.6ZM115.405 71.2696C113.913 71.2696 112.646 71 111.604 70.4609C110.562 69.9217 109.627 69.131 108.8 68.0887L110.903 65.9861C111.424 66.7409 112.044 67.3339 112.763 67.7652C113.482 68.1786 114.398 68.3852 115.513 68.3852C116.555 68.3852 117.382 68.1696 117.993 67.7383C118.622 67.307 118.936 66.7139 118.936 65.9592C118.936 65.3302 118.774 64.818 118.451 64.4227C118.127 64.0273 117.696 63.7038 117.157 63.4522C116.636 63.1827 116.052 62.949 115.405 62.7514C114.776 62.5357 114.138 62.3021 113.491 62.0505C112.862 61.7809 112.278 61.4485 111.739 61.0531C111.218 60.6578 110.795 60.1456 110.472 59.5166C110.148 58.8876 109.987 58.0879 109.987 57.1175C109.987 56.0033 110.256 55.0598 110.795 54.2871C111.352 53.4964 112.098 52.8943 113.033 52.481C113.967 52.0677 115.009 51.861 116.16 51.861C117.4 51.861 118.505 52.1036 119.475 52.5888C120.464 53.0741 121.263 53.694 121.874 54.4488L119.772 56.5514C119.233 55.9404 118.667 55.4911 118.073 55.2036C117.498 54.8981 116.833 54.7453 116.079 54.7453C115.144 54.7453 114.407 54.934 113.868 55.3114C113.347 55.6888 113.087 56.219 113.087 56.9019C113.087 57.4769 113.248 57.9442 113.572 58.3036C113.895 58.645 114.318 58.9415 114.839 59.1931C115.378 59.4268 115.962 59.6514 116.591 59.867C117.238 60.0827 117.876 60.3253 118.505 60.5949C119.152 60.8644 119.736 61.2149 120.257 61.6462C120.796 62.0595 121.227 62.5986 121.551 63.2635C121.874 63.9285 122.036 64.7641 122.036 65.7705C122.036 67.4597 121.434 68.7986 120.23 69.787C119.044 70.7754 117.435 71.2696 115.405 71.2696ZM128.786 71V52.6697H131.886V71H128.786ZM122.64 54.961V52.1306H138.032V54.961H122.64ZM136.454 71L144.217 52.1306H146.374L154.083 71H150.741L144.702 55.7158H145.834L139.742 71H136.454ZM140.281 67.3609V64.6653H150.282V67.3609H140.281ZM158.712 71L166.475 52.1306H168.631L176.341 71H172.998L166.96 55.7158H168.092L162 71H158.712ZM162.539 67.3609V64.6653H172.54V67.3609H162.539ZM180.631 71.2696C180.056 71.2696 179.58 71.0809 179.202 70.7035C178.843 70.3081 178.663 69.8319 178.663 69.2748C178.663 68.6997 178.843 68.2235 179.202 67.8461C179.58 67.4687 180.056 67.28 180.631 67.28C181.206 67.28 181.673 67.4687 182.033 67.8461C182.41 68.2235 182.599 68.6997 182.599 69.2748C182.599 69.8319 182.41 70.3081 182.033 70.7035C181.673 71.0809 181.206 71.2696 180.631 71.2696Z" fill="black"/>
</svg>
